<svg width="189" height="54" viewBox="0 0 189 54" fill="none" xmlns="http://www.w3.org/2000/svg">
<path d="M126.994 28.2146C127.433 40.9317 114.589 51.6968 98.3065 52.2592C82.0238 52.8216 68.468 42.9683 68.0288 30.2512C67.5895 17.5342 80.3669 4.85019 96.6496 4.2878C112.932 3.72541 126.554 15.4976 126.994 28.2146Z" fill="#70585B"/>
<path d="M187.924 25.1495C188.382 38.3965 178.237 49.4984 165.267 49.9464C152.296 50.3944 116.425 40.8818 115.967 27.6349C115.509 14.3879 150.639 2.42303 163.61 1.97503C176.581 1.52703 187.467 11.9026 187.924 25.1495Z" fill="#70585B"/>
<path d="M12.2621 25.0882C13.1565 11.8636 24.3788 1.85276 37.3279 2.72845C50.277 3.60414 84.9924 16.7215 84.0981 29.9461C83.2037 43.1707 47.0384 51.4948 34.0893 50.6191C21.1402 49.7434 11.3678 38.3128 12.2621 25.0882Z" fill="#70585B"/>
<path d="M25.1429 48.7826C38.1138 48.3346 48.258 37.2326 47.8004 23.9857C47.3429 10.7388 36.457 0.363191 23.486 0.811194C10.515 1.2592 0.370905 12.3611 0.82844 25.6081C1.28598 38.855 12.1719 49.2306 25.1429 48.7826Z" fill="#70585B"/>
</svg>
